<mxfile host="app.diagrams.net" modified="2023-07-25T19:33:52.172Z" agent="Mozilla/5.0 (Windows NT 10.0; Win64; x64) AppleWebKit/537.36 (KHTML, like Gecko) Chrome/114.0.0.0 Safari/537.36" etag="blTmpYaYqPVXapF4pKve" version="21.6.5" type="device" pages="5">
  <diagram name="Página-1" id="bOUY784-GlXEohg7Zq21">
    <mxGraphModel dx="1050" dy="581" grid="1" gridSize="10" guides="1" tooltips="1" connect="1" arrows="1" fold="1" page="1" pageScale="1" pageWidth="827" pageHeight="1169" math="0" shadow="0">
      <root>
        <mxCell id="0" />
        <mxCell id="1" parent="0" />
        <mxCell id="cgoq0In6DJLAMU8l7We4-14" style="edgeStyle=orthogonalEdgeStyle;rounded=0;orthogonalLoop=1;jettySize=auto;html=1;entryX=0;entryY=0.5;entryDx=0;entryDy=0;endArrow=none;endFill=0;" parent="1" source="cgoq0In6DJLAMU8l7We4-1" target="cgoq0In6DJLAMU8l7We4-6" edge="1">
          <mxGeometry relative="1" as="geometry" />
        </mxCell>
        <mxCell id="cgoq0In6DJLAMU8l7We4-15" style="edgeStyle=orthogonalEdgeStyle;rounded=0;orthogonalLoop=1;jettySize=auto;html=1;entryX=0;entryY=0.5;entryDx=0;entryDy=0;endArrow=none;endFill=0;" parent="1" source="cgoq0In6DJLAMU8l7We4-1" target="cgoq0In6DJLAMU8l7We4-7" edge="1">
          <mxGeometry relative="1" as="geometry" />
        </mxCell>
        <mxCell id="cgoq0In6DJLAMU8l7We4-1" value="Filme" style="rounded=0;whiteSpace=wrap;html=1;" parent="1" vertex="1">
          <mxGeometry x="200" y="120" width="120" height="60" as="geometry" />
        </mxCell>
        <mxCell id="cgoq0In6DJLAMU8l7We4-12" style="edgeStyle=orthogonalEdgeStyle;rounded=0;orthogonalLoop=1;jettySize=auto;html=1;entryX=0.5;entryY=1;entryDx=0;entryDy=0;endArrow=none;endFill=0;" parent="1" source="cgoq0In6DJLAMU8l7We4-2" target="cgoq0In6DJLAMU8l7We4-1" edge="1">
          <mxGeometry relative="1" as="geometry" />
        </mxCell>
        <mxCell id="cgoq0In6DJLAMU8l7We4-2" value="Possui" style="rhombus;whiteSpace=wrap;html=1;" parent="1" vertex="1">
          <mxGeometry x="220" y="240" width="80" height="80" as="geometry" />
        </mxCell>
        <mxCell id="cgoq0In6DJLAMU8l7We4-11" style="edgeStyle=orthogonalEdgeStyle;rounded=0;orthogonalLoop=1;jettySize=auto;html=1;entryX=0.5;entryY=1;entryDx=0;entryDy=0;endArrow=none;endFill=0;" parent="1" source="cgoq0In6DJLAMU8l7We4-4" target="cgoq0In6DJLAMU8l7We4-2" edge="1">
          <mxGeometry relative="1" as="geometry" />
        </mxCell>
        <mxCell id="cgoq0In6DJLAMU8l7We4-13" style="edgeStyle=orthogonalEdgeStyle;rounded=0;orthogonalLoop=1;jettySize=auto;html=1;entryX=0;entryY=0.5;entryDx=0;entryDy=0;endArrow=none;endFill=0;" parent="1" source="cgoq0In6DJLAMU8l7We4-4" target="cgoq0In6DJLAMU8l7We4-5" edge="1">
          <mxGeometry relative="1" as="geometry" />
        </mxCell>
        <mxCell id="cgoq0In6DJLAMU8l7We4-4" value="Genero" style="rounded=0;whiteSpace=wrap;html=1;" parent="1" vertex="1">
          <mxGeometry x="200" y="380" width="120" height="60" as="geometry" />
        </mxCell>
        <mxCell id="cgoq0In6DJLAMU8l7We4-5" value="Nome" style="ellipse;whiteSpace=wrap;html=1;" parent="1" vertex="1">
          <mxGeometry x="380" y="370" width="120" height="80" as="geometry" />
        </mxCell>
        <mxCell id="cgoq0In6DJLAMU8l7We4-6" value="Nome" style="ellipse;whiteSpace=wrap;html=1;" parent="1" vertex="1">
          <mxGeometry x="380" y="160" width="120" height="80" as="geometry" />
        </mxCell>
        <mxCell id="cgoq0In6DJLAMU8l7We4-7" value="Lançamento" style="ellipse;whiteSpace=wrap;html=1;" parent="1" vertex="1">
          <mxGeometry x="380" y="60" width="120" height="80" as="geometry" />
        </mxCell>
        <mxCell id="cgoq0In6DJLAMU8l7We4-8" value="n" style="text;html=1;strokeColor=none;fillColor=none;align=center;verticalAlign=middle;whiteSpace=wrap;rounded=0;" parent="1" vertex="1">
          <mxGeometry x="250" y="180" width="60" height="30" as="geometry" />
        </mxCell>
        <mxCell id="cgoq0In6DJLAMU8l7We4-9" value="1" style="text;html=1;strokeColor=none;fillColor=none;align=center;verticalAlign=middle;whiteSpace=wrap;rounded=0;" parent="1" vertex="1">
          <mxGeometry x="250" y="350" width="60" height="30" as="geometry" />
        </mxCell>
      </root>
    </mxGraphModel>
  </diagram>
  <diagram id="QDb-V3VzkkYsyRTCqNZg" name="Página-2">
    <mxGraphModel dx="1050" dy="581" grid="1" gridSize="10" guides="1" tooltips="1" connect="1" arrows="1" fold="1" page="1" pageScale="1" pageWidth="827" pageHeight="1169" math="0" shadow="0">
      <root>
        <mxCell id="0" />
        <mxCell id="1" parent="0" />
        <mxCell id="JwWZ5VMkj_6eWhGYqMkQ-11" style="edgeStyle=orthogonalEdgeStyle;rounded=0;orthogonalLoop=1;jettySize=auto;html=1;endArrow=none;endFill=0;" parent="1" source="JwWZ5VMkj_6eWhGYqMkQ-1" target="JwWZ5VMkj_6eWhGYqMkQ-6" edge="1">
          <mxGeometry relative="1" as="geometry" />
        </mxCell>
        <mxCell id="JwWZ5VMkj_6eWhGYqMkQ-12" style="edgeStyle=orthogonalEdgeStyle;rounded=0;orthogonalLoop=1;jettySize=auto;html=1;entryX=0;entryY=0.5;entryDx=0;entryDy=0;endArrow=none;endFill=0;" parent="1" source="JwWZ5VMkj_6eWhGYqMkQ-1" target="JwWZ5VMkj_6eWhGYqMkQ-9" edge="1">
          <mxGeometry relative="1" as="geometry">
            <Array as="points">
              <mxPoint x="485" y="290" />
              <mxPoint x="485" y="300" />
              <mxPoint x="520" y="300" />
            </Array>
          </mxGeometry>
        </mxCell>
        <mxCell id="JwWZ5VMkj_6eWhGYqMkQ-28" style="edgeStyle=orthogonalEdgeStyle;rounded=0;orthogonalLoop=1;jettySize=auto;html=1;entryX=0.5;entryY=1;entryDx=0;entryDy=0;endArrow=none;endFill=0;" parent="1" source="JwWZ5VMkj_6eWhGYqMkQ-1" target="JwWZ5VMkj_6eWhGYqMkQ-26" edge="1">
          <mxGeometry relative="1" as="geometry" />
        </mxCell>
        <mxCell id="JwWZ5VMkj_6eWhGYqMkQ-30" style="edgeStyle=orthogonalEdgeStyle;rounded=0;orthogonalLoop=1;jettySize=auto;html=1;entryX=0.5;entryY=1;entryDx=0;entryDy=0;endArrow=none;endFill=0;" parent="1" source="JwWZ5VMkj_6eWhGYqMkQ-1" target="JwWZ5VMkj_6eWhGYqMkQ-27" edge="1">
          <mxGeometry relative="1" as="geometry" />
        </mxCell>
        <mxCell id="JwWZ5VMkj_6eWhGYqMkQ-1" value="Pessoa" style="rounded=0;whiteSpace=wrap;html=1;" parent="1" vertex="1">
          <mxGeometry x="330" y="260" width="120" height="60" as="geometry" />
        </mxCell>
        <mxCell id="JwWZ5VMkj_6eWhGYqMkQ-35" style="edgeStyle=orthogonalEdgeStyle;rounded=0;orthogonalLoop=1;jettySize=auto;html=1;entryX=0.5;entryY=0;entryDx=0;entryDy=0;endArrow=none;endFill=0;" parent="1" source="JwWZ5VMkj_6eWhGYqMkQ-2" target="JwWZ5VMkj_6eWhGYqMkQ-34" edge="1">
          <mxGeometry relative="1" as="geometry">
            <mxPoint x="730" y="350" as="targetPoint" />
          </mxGeometry>
        </mxCell>
        <mxCell id="JwWZ5VMkj_6eWhGYqMkQ-2" value="Email" style="rounded=0;whiteSpace=wrap;html=1;" parent="1" vertex="1">
          <mxGeometry x="670" y="260" width="120" height="60" as="geometry" />
        </mxCell>
        <mxCell id="JwWZ5VMkj_6eWhGYqMkQ-17" style="edgeStyle=orthogonalEdgeStyle;rounded=0;orthogonalLoop=1;jettySize=auto;html=1;entryX=0;entryY=0.5;entryDx=0;entryDy=0;endArrow=none;endFill=0;" parent="1" source="JwWZ5VMkj_6eWhGYqMkQ-3" target="JwWZ5VMkj_6eWhGYqMkQ-8" edge="1">
          <mxGeometry relative="1" as="geometry" />
        </mxCell>
        <mxCell id="JwWZ5VMkj_6eWhGYqMkQ-33" value="" style="edgeStyle=orthogonalEdgeStyle;rounded=0;orthogonalLoop=1;jettySize=auto;html=1;endArrow=none;endFill=0;" parent="1" source="JwWZ5VMkj_6eWhGYqMkQ-3" target="JwWZ5VMkj_6eWhGYqMkQ-32" edge="1">
          <mxGeometry relative="1" as="geometry" />
        </mxCell>
        <mxCell id="JwWZ5VMkj_6eWhGYqMkQ-3" value="Telefone" style="rounded=0;whiteSpace=wrap;html=1;" parent="1" vertex="1">
          <mxGeometry x="30" y="260" width="120" height="60" as="geometry" />
        </mxCell>
        <mxCell id="JwWZ5VMkj_6eWhGYqMkQ-18" style="edgeStyle=orthogonalEdgeStyle;rounded=0;orthogonalLoop=1;jettySize=auto;html=1;entryX=0.5;entryY=1;entryDx=0;entryDy=0;endArrow=none;endFill=0;" parent="1" source="JwWZ5VMkj_6eWhGYqMkQ-4" target="JwWZ5VMkj_6eWhGYqMkQ-6" edge="1">
          <mxGeometry relative="1" as="geometry" />
        </mxCell>
        <mxCell id="JwWZ5VMkj_6eWhGYqMkQ-4" value="CNH" style="rounded=0;whiteSpace=wrap;html=1;" parent="1" vertex="1">
          <mxGeometry x="330" y="500" width="120" height="60" as="geometry" />
        </mxCell>
        <mxCell id="JwWZ5VMkj_6eWhGYqMkQ-6" value="Possui" style="rhombus;whiteSpace=wrap;html=1;" parent="1" vertex="1">
          <mxGeometry x="350" y="370" width="80" height="80" as="geometry" />
        </mxCell>
        <mxCell id="JwWZ5VMkj_6eWhGYqMkQ-15" style="edgeStyle=orthogonalEdgeStyle;rounded=0;orthogonalLoop=1;jettySize=auto;html=1;endArrow=none;endFill=0;" parent="1" source="JwWZ5VMkj_6eWhGYqMkQ-8" target="JwWZ5VMkj_6eWhGYqMkQ-1" edge="1">
          <mxGeometry relative="1" as="geometry" />
        </mxCell>
        <mxCell id="JwWZ5VMkj_6eWhGYqMkQ-8" value="Possui" style="rhombus;whiteSpace=wrap;html=1;" parent="1" vertex="1">
          <mxGeometry x="200" y="250" width="80" height="80" as="geometry" />
        </mxCell>
        <mxCell id="JwWZ5VMkj_6eWhGYqMkQ-13" style="edgeStyle=orthogonalEdgeStyle;rounded=0;orthogonalLoop=1;jettySize=auto;html=1;entryX=0;entryY=0.5;entryDx=0;entryDy=0;endArrow=none;endFill=0;" parent="1" source="JwWZ5VMkj_6eWhGYqMkQ-9" target="JwWZ5VMkj_6eWhGYqMkQ-2" edge="1">
          <mxGeometry relative="1" as="geometry" />
        </mxCell>
        <mxCell id="JwWZ5VMkj_6eWhGYqMkQ-9" value="Possui" style="rhombus;whiteSpace=wrap;html=1;" parent="1" vertex="1">
          <mxGeometry x="520" y="250" width="80" height="80" as="geometry" />
        </mxCell>
        <mxCell id="JwWZ5VMkj_6eWhGYqMkQ-19" value="1" style="text;html=1;strokeColor=none;fillColor=none;align=center;verticalAlign=middle;whiteSpace=wrap;rounded=0;" parent="1" vertex="1">
          <mxGeometry x="290" y="290" width="60" height="30" as="geometry" />
        </mxCell>
        <mxCell id="JwWZ5VMkj_6eWhGYqMkQ-20" value="n" style="text;html=1;strokeColor=none;fillColor=none;align=center;verticalAlign=middle;whiteSpace=wrap;rounded=0;" parent="1" vertex="1">
          <mxGeometry x="140" y="290" width="60" height="30" as="geometry" />
        </mxCell>
        <mxCell id="JwWZ5VMkj_6eWhGYqMkQ-21" value="1" style="text;html=1;strokeColor=none;fillColor=none;align=center;verticalAlign=middle;whiteSpace=wrap;rounded=0;" parent="1" vertex="1">
          <mxGeometry x="430" y="290" width="60" height="30" as="geometry" />
        </mxCell>
        <mxCell id="JwWZ5VMkj_6eWhGYqMkQ-22" value="1" style="text;html=1;strokeColor=none;fillColor=none;align=center;verticalAlign=middle;whiteSpace=wrap;rounded=0;" parent="1" vertex="1">
          <mxGeometry x="384" y="470" width="60" height="30" as="geometry" />
        </mxCell>
        <mxCell id="JwWZ5VMkj_6eWhGYqMkQ-23" value="1" style="text;html=1;strokeColor=none;fillColor=none;align=center;verticalAlign=middle;whiteSpace=wrap;rounded=0;" parent="1" vertex="1">
          <mxGeometry x="384" y="320" width="60" height="30" as="geometry" />
        </mxCell>
        <mxCell id="JwWZ5VMkj_6eWhGYqMkQ-25" value="n" style="text;html=1;strokeColor=none;fillColor=none;align=center;verticalAlign=middle;whiteSpace=wrap;rounded=0;" parent="1" vertex="1">
          <mxGeometry x="620" y="290" width="60" height="30" as="geometry" />
        </mxCell>
        <mxCell id="JwWZ5VMkj_6eWhGYqMkQ-26" value="Idade" style="ellipse;whiteSpace=wrap;html=1;" parent="1" vertex="1">
          <mxGeometry x="260" y="120" width="110" height="60" as="geometry" />
        </mxCell>
        <mxCell id="JwWZ5VMkj_6eWhGYqMkQ-27" value="Nome" style="ellipse;whiteSpace=wrap;html=1;" parent="1" vertex="1">
          <mxGeometry x="400" y="120" width="110" height="60" as="geometry" />
        </mxCell>
        <mxCell id="JwWZ5VMkj_6eWhGYqMkQ-32" value="Numero" style="ellipse;whiteSpace=wrap;html=1;" parent="1" vertex="1">
          <mxGeometry x="35" y="350" width="110" height="50" as="geometry" />
        </mxCell>
        <mxCell id="JwWZ5VMkj_6eWhGYqMkQ-34" value="Nome" style="ellipse;whiteSpace=wrap;html=1;" parent="1" vertex="1">
          <mxGeometry x="675" y="360" width="110" height="60" as="geometry" />
        </mxCell>
      </root>
    </mxGraphModel>
  </diagram>
  <diagram id="myVMSbuvmG-PD3kg_lAG" name="Página-3">
    <mxGraphModel dx="2442" dy="2063" grid="1" gridSize="10" guides="1" tooltips="1" connect="1" arrows="1" fold="1" page="1" pageScale="1" pageWidth="827" pageHeight="1169" math="0" shadow="0">
      <root>
        <mxCell id="0" />
        <mxCell id="1" parent="0" />
        <mxCell id="xDuWudPnLVVZjKrSS0bD-4" style="edgeStyle=orthogonalEdgeStyle;rounded=0;orthogonalLoop=1;jettySize=auto;html=1;entryX=0;entryY=0.5;entryDx=0;entryDy=0;endArrow=none;endFill=0;" edge="1" parent="1" source="3opgyhBsrDX_o6mQGfvn-1" target="xDuWudPnLVVZjKrSS0bD-3">
          <mxGeometry relative="1" as="geometry" />
        </mxCell>
        <mxCell id="xDuWudPnLVVZjKrSS0bD-11" style="edgeStyle=orthogonalEdgeStyle;rounded=0;orthogonalLoop=1;jettySize=auto;html=1;entryX=1;entryY=0.5;entryDx=0;entryDy=0;endArrow=none;endFill=0;" edge="1" parent="1" source="3opgyhBsrDX_o6mQGfvn-1" target="xDuWudPnLVVZjKrSS0bD-8">
          <mxGeometry relative="1" as="geometry" />
        </mxCell>
        <mxCell id="xDuWudPnLVVZjKrSS0bD-12" style="edgeStyle=orthogonalEdgeStyle;rounded=0;orthogonalLoop=1;jettySize=auto;html=1;entryX=0.5;entryY=1;entryDx=0;entryDy=0;endArrow=none;endFill=0;" edge="1" parent="1" source="3opgyhBsrDX_o6mQGfvn-1" target="xDuWudPnLVVZjKrSS0bD-10">
          <mxGeometry relative="1" as="geometry" />
        </mxCell>
        <mxCell id="xDuWudPnLVVZjKrSS0bD-13" style="edgeStyle=orthogonalEdgeStyle;rounded=0;orthogonalLoop=1;jettySize=auto;html=1;entryX=0.5;entryY=1;entryDx=0;entryDy=0;endArrow=none;endFill=0;" edge="1" parent="1" source="3opgyhBsrDX_o6mQGfvn-1" target="xDuWudPnLVVZjKrSS0bD-9">
          <mxGeometry relative="1" as="geometry" />
        </mxCell>
        <mxCell id="3opgyhBsrDX_o6mQGfvn-1" value="Veiculo" style="rounded=0;whiteSpace=wrap;html=1;" parent="1" vertex="1">
          <mxGeometry x="160" y="120" width="120" height="60" as="geometry" />
        </mxCell>
        <mxCell id="3opgyhBsrDX_o6mQGfvn-12" style="edgeStyle=orthogonalEdgeStyle;rounded=0;orthogonalLoop=1;jettySize=auto;html=1;entryX=0.5;entryY=0;entryDx=0;entryDy=0;endArrow=none;endFill=0;" parent="1" source="3opgyhBsrDX_o6mQGfvn-2" target="3opgyhBsrDX_o6mQGfvn-11" edge="1">
          <mxGeometry relative="1" as="geometry">
            <mxPoint x="230" y="620" as="targetPoint" />
          </mxGeometry>
        </mxCell>
        <mxCell id="3opgyhBsrDX_o6mQGfvn-13" style="edgeStyle=orthogonalEdgeStyle;rounded=0;orthogonalLoop=1;jettySize=auto;html=1;endArrow=none;endFill=0;" parent="1" source="3opgyhBsrDX_o6mQGfvn-2" target="3opgyhBsrDX_o6mQGfvn-10" edge="1">
          <mxGeometry relative="1" as="geometry" />
        </mxCell>
        <mxCell id="3opgyhBsrDX_o6mQGfvn-14" style="edgeStyle=orthogonalEdgeStyle;rounded=0;orthogonalLoop=1;jettySize=auto;html=1;entryX=0.5;entryY=0;entryDx=0;entryDy=0;endArrow=none;endFill=0;" parent="1" source="3opgyhBsrDX_o6mQGfvn-2" target="3opgyhBsrDX_o6mQGfvn-9" edge="1">
          <mxGeometry relative="1" as="geometry" />
        </mxCell>
        <mxCell id="xDuWudPnLVVZjKrSS0bD-19" style="edgeStyle=orthogonalEdgeStyle;rounded=0;orthogonalLoop=1;jettySize=auto;html=1;endArrow=none;endFill=0;" edge="1" parent="1" source="3opgyhBsrDX_o6mQGfvn-2">
          <mxGeometry relative="1" as="geometry">
            <mxPoint x="230" y="460" as="targetPoint" />
          </mxGeometry>
        </mxCell>
        <mxCell id="3opgyhBsrDX_o6mQGfvn-2" value="Cliente" style="rounded=0;whiteSpace=wrap;html=1;" parent="1" vertex="1">
          <mxGeometry x="170" y="530" width="120" height="60" as="geometry" />
        </mxCell>
        <mxCell id="3opgyhBsrDX_o6mQGfvn-9" value="CPF" style="ellipse;whiteSpace=wrap;html=1;" parent="1" vertex="1">
          <mxGeometry x="40" y="640" width="110" height="60" as="geometry" />
        </mxCell>
        <mxCell id="3opgyhBsrDX_o6mQGfvn-10" value="Nome" style="ellipse;whiteSpace=wrap;html=1;" parent="1" vertex="1">
          <mxGeometry x="314" y="640" width="110" height="60" as="geometry" />
        </mxCell>
        <mxCell id="3opgyhBsrDX_o6mQGfvn-11" value="Idade" style="ellipse;whiteSpace=wrap;html=1;" parent="1" vertex="1">
          <mxGeometry x="175" y="640" width="110" height="60" as="geometry" />
        </mxCell>
        <mxCell id="3opgyhBsrDX_o6mQGfvn-20" value="1" style="text;html=1;strokeColor=none;fillColor=none;align=center;verticalAlign=middle;whiteSpace=wrap;rounded=0;" parent="1" vertex="1">
          <mxGeometry x="200" y="370" width="60" height="30" as="geometry" />
        </mxCell>
        <mxCell id="3opgyhBsrDX_o6mQGfvn-21" value="n" style="text;html=1;strokeColor=none;fillColor=none;align=center;verticalAlign=middle;whiteSpace=wrap;rounded=0;" parent="1" vertex="1">
          <mxGeometry x="-10" y="360" width="60" height="30" as="geometry" />
        </mxCell>
        <mxCell id="xDuWudPnLVVZjKrSS0bD-5" style="edgeStyle=orthogonalEdgeStyle;rounded=0;orthogonalLoop=1;jettySize=auto;html=1;endArrow=none;endFill=0;" edge="1" parent="1" source="xDuWudPnLVVZjKrSS0bD-1" target="xDuWudPnLVVZjKrSS0bD-3">
          <mxGeometry relative="1" as="geometry" />
        </mxCell>
        <mxCell id="xDuWudPnLVVZjKrSS0bD-1" value="Empresa" style="rounded=0;whiteSpace=wrap;html=1;" vertex="1" parent="1">
          <mxGeometry x="470" y="120" width="120" height="60" as="geometry" />
        </mxCell>
        <mxCell id="xDuWudPnLVVZjKrSS0bD-3" value="Possui" style="rhombus;whiteSpace=wrap;html=1;" vertex="1" parent="1">
          <mxGeometry x="330" y="110" width="80" height="80" as="geometry" />
        </mxCell>
        <mxCell id="xDuWudPnLVVZjKrSS0bD-6" value="Marca" style="rounded=0;whiteSpace=wrap;html=1;" vertex="1" parent="1">
          <mxGeometry x="160" y="-120" width="120" height="60" as="geometry" />
        </mxCell>
        <mxCell id="xDuWudPnLVVZjKrSS0bD-7" value="Modelo" style="rounded=0;whiteSpace=wrap;html=1;" vertex="1" parent="1">
          <mxGeometry x="-60" y="-120" width="120" height="60" as="geometry" />
        </mxCell>
        <mxCell id="xDuWudPnLVVZjKrSS0bD-8" value="Placa" style="ellipse;whiteSpace=wrap;html=1;" vertex="1" parent="1">
          <mxGeometry x="-150" y="125" width="110" height="50" as="geometry" />
        </mxCell>
        <mxCell id="xDuWudPnLVVZjKrSS0bD-15" style="edgeStyle=orthogonalEdgeStyle;rounded=0;orthogonalLoop=1;jettySize=auto;html=1;entryX=0.5;entryY=1;entryDx=0;entryDy=0;endArrow=none;endFill=0;" edge="1" parent="1" source="xDuWudPnLVVZjKrSS0bD-9" target="xDuWudPnLVVZjKrSS0bD-7">
          <mxGeometry relative="1" as="geometry" />
        </mxCell>
        <mxCell id="xDuWudPnLVVZjKrSS0bD-9" value="Possui" style="rhombus;whiteSpace=wrap;html=1;" vertex="1" parent="1">
          <mxGeometry x="-40" y="-10" width="80" height="80" as="geometry" />
        </mxCell>
        <mxCell id="xDuWudPnLVVZjKrSS0bD-14" style="edgeStyle=orthogonalEdgeStyle;rounded=0;orthogonalLoop=1;jettySize=auto;html=1;entryX=0.5;entryY=1;entryDx=0;entryDy=0;endArrow=none;endFill=0;" edge="1" parent="1" source="xDuWudPnLVVZjKrSS0bD-10" target="xDuWudPnLVVZjKrSS0bD-6">
          <mxGeometry relative="1" as="geometry" />
        </mxCell>
        <mxCell id="xDuWudPnLVVZjKrSS0bD-10" value="Possui" style="rhombus;whiteSpace=wrap;html=1;" vertex="1" parent="1">
          <mxGeometry x="180" y="-10" width="80" height="80" as="geometry" />
        </mxCell>
        <mxCell id="xDuWudPnLVVZjKrSS0bD-24" style="edgeStyle=orthogonalEdgeStyle;rounded=0;orthogonalLoop=1;jettySize=auto;html=1;entryX=0.5;entryY=1;entryDx=0;entryDy=0;endArrow=none;endFill=0;" edge="1" parent="1" source="xDuWudPnLVVZjKrSS0bD-16" target="xDuWudPnLVVZjKrSS0bD-22">
          <mxGeometry relative="1" as="geometry" />
        </mxCell>
        <mxCell id="xDuWudPnLVVZjKrSS0bD-16" value="Aluguel" style="rounded=0;whiteSpace=wrap;html=1;" vertex="1" parent="1">
          <mxGeometry x="-60" y="390" width="120" height="60" as="geometry" />
        </mxCell>
        <mxCell id="xDuWudPnLVVZjKrSS0bD-25" style="edgeStyle=orthogonalEdgeStyle;rounded=0;orthogonalLoop=1;jettySize=auto;html=1;entryX=1;entryY=0.5;entryDx=0;entryDy=0;endArrow=none;endFill=0;" edge="1" parent="1" source="xDuWudPnLVVZjKrSS0bD-17" target="xDuWudPnLVVZjKrSS0bD-16">
          <mxGeometry relative="1" as="geometry" />
        </mxCell>
        <mxCell id="xDuWudPnLVVZjKrSS0bD-17" value="Possui" style="rhombus;whiteSpace=wrap;html=1;" vertex="1" parent="1">
          <mxGeometry x="190" y="380" width="80" height="80" as="geometry" />
        </mxCell>
        <mxCell id="xDuWudPnLVVZjKrSS0bD-26" style="edgeStyle=orthogonalEdgeStyle;rounded=0;orthogonalLoop=1;jettySize=auto;html=1;entryX=0.5;entryY=1;entryDx=0;entryDy=0;endArrow=none;endFill=0;" edge="1" parent="1" source="xDuWudPnLVVZjKrSS0bD-22" target="3opgyhBsrDX_o6mQGfvn-1">
          <mxGeometry relative="1" as="geometry" />
        </mxCell>
        <mxCell id="xDuWudPnLVVZjKrSS0bD-22" value="Possui" style="rhombus;whiteSpace=wrap;html=1;" vertex="1" parent="1">
          <mxGeometry x="-40" y="230" width="80" height="80" as="geometry" />
        </mxCell>
        <mxCell id="xDuWudPnLVVZjKrSS0bD-28" value="1" style="text;html=1;strokeColor=none;fillColor=none;align=center;verticalAlign=middle;whiteSpace=wrap;rounded=0;" vertex="1" parent="1">
          <mxGeometry x="-50" y="-60" width="60" height="30" as="geometry" />
        </mxCell>
        <mxCell id="xDuWudPnLVVZjKrSS0bD-29" value="n" style="text;html=1;strokeColor=none;fillColor=none;align=center;verticalAlign=middle;whiteSpace=wrap;rounded=0;" vertex="1" parent="1">
          <mxGeometry x="120" y="120" width="60" height="30" as="geometry" />
        </mxCell>
        <mxCell id="xDuWudPnLVVZjKrSS0bD-30" value="1" style="text;html=1;strokeColor=none;fillColor=none;align=center;verticalAlign=middle;whiteSpace=wrap;rounded=0;" vertex="1" parent="1">
          <mxGeometry x="210" y="180" width="60" height="30" as="geometry" />
        </mxCell>
        <mxCell id="xDuWudPnLVVZjKrSS0bD-31" value="n" style="text;html=1;strokeColor=none;fillColor=none;align=center;verticalAlign=middle;whiteSpace=wrap;rounded=0;" vertex="1" parent="1">
          <mxGeometry x="40" y="430" width="60" height="30" as="geometry" />
        </mxCell>
        <mxCell id="xDuWudPnLVVZjKrSS0bD-32" value="1" style="text;html=1;strokeColor=none;fillColor=none;align=center;verticalAlign=middle;whiteSpace=wrap;rounded=0;" vertex="1" parent="1">
          <mxGeometry x="210" y="510" width="60" height="30" as="geometry" />
        </mxCell>
        <mxCell id="xDuWudPnLVVZjKrSS0bD-33" value="n" style="text;html=1;strokeColor=none;fillColor=none;align=center;verticalAlign=middle;whiteSpace=wrap;rounded=0;" vertex="1" parent="1">
          <mxGeometry x="200" y="95" width="60" height="30" as="geometry" />
        </mxCell>
        <mxCell id="xDuWudPnLVVZjKrSS0bD-34" value="1" style="text;html=1;strokeColor=none;fillColor=none;align=center;verticalAlign=middle;whiteSpace=wrap;rounded=0;" vertex="1" parent="1">
          <mxGeometry x="200" y="-60" width="60" height="30" as="geometry" />
        </mxCell>
        <mxCell id="xDuWudPnLVVZjKrSS0bD-35" value="1" style="text;html=1;strokeColor=none;fillColor=none;align=center;verticalAlign=middle;whiteSpace=wrap;rounded=0;" vertex="1" parent="1">
          <mxGeometry x="430" y="150" width="60" height="30" as="geometry" />
        </mxCell>
        <mxCell id="xDuWudPnLVVZjKrSS0bD-36" value="n" style="text;html=1;strokeColor=none;fillColor=none;align=center;verticalAlign=middle;whiteSpace=wrap;rounded=0;" vertex="1" parent="1">
          <mxGeometry x="260" y="150" width="60" height="30" as="geometry" />
        </mxCell>
      </root>
    </mxGraphModel>
  </diagram>
  <diagram id="P1H1bPp7y1JyEUeO7v4l" name="Página-4">
    <mxGraphModel dx="2227" dy="1944" grid="1" gridSize="10" guides="1" tooltips="1" connect="1" arrows="1" fold="1" page="1" pageScale="1" pageWidth="827" pageHeight="1169" math="0" shadow="0">
      <root>
        <mxCell id="0" />
        <mxCell id="1" parent="0" />
        <mxCell id="juon4zRYSN-7gzzzeqw9-2" style="edgeStyle=orthogonalEdgeStyle;rounded=0;orthogonalLoop=1;jettySize=auto;html=1;entryX=0;entryY=0.5;entryDx=0;entryDy=0;endArrow=none;endFill=0;" parent="1" source="X4NWs6gBd-d9zQGTasvD-1" edge="1">
          <mxGeometry relative="1" as="geometry">
            <mxPoint x="480" y="90" as="targetPoint" />
          </mxGeometry>
        </mxCell>
        <mxCell id="juon4zRYSN-7gzzzeqw9-6" style="edgeStyle=orthogonalEdgeStyle;rounded=0;orthogonalLoop=1;jettySize=auto;html=1;entryX=0.5;entryY=0;entryDx=0;entryDy=0;endArrow=none;endFill=0;" parent="1" source="X4NWs6gBd-d9zQGTasvD-1" target="juon4zRYSN-7gzzzeqw9-5" edge="1">
          <mxGeometry relative="1" as="geometry" />
        </mxCell>
        <mxCell id="juon4zRYSN-7gzzzeqw9-19" style="edgeStyle=orthogonalEdgeStyle;rounded=0;orthogonalLoop=1;jettySize=auto;html=1;endArrow=none;endFill=0;" parent="1" source="X4NWs6gBd-d9zQGTasvD-1" edge="1">
          <mxGeometry relative="1" as="geometry">
            <mxPoint x="320" y="10" as="targetPoint" />
          </mxGeometry>
        </mxCell>
        <mxCell id="X4NWs6gBd-d9zQGTasvD-1" value="Clinica" style="rounded=0;whiteSpace=wrap;html=1;" parent="1" vertex="1">
          <mxGeometry x="260" y="60" width="120" height="60" as="geometry" />
        </mxCell>
        <mxCell id="juon4zRYSN-7gzzzeqw9-23" style="edgeStyle=orthogonalEdgeStyle;rounded=0;orthogonalLoop=1;jettySize=auto;html=1;endArrow=none;endFill=0;" parent="1" source="X4NWs6gBd-d9zQGTasvD-2" edge="1">
          <mxGeometry relative="1" as="geometry">
            <mxPoint x="630" y="320" as="targetPoint" />
          </mxGeometry>
        </mxCell>
        <mxCell id="9-YvurARduG6vsglTMmP-13" style="edgeStyle=orthogonalEdgeStyle;rounded=0;orthogonalLoop=1;jettySize=auto;html=1;entryX=0;entryY=0.5;entryDx=0;entryDy=0;endArrow=none;endFill=0;" edge="1" parent="1" source="X4NWs6gBd-d9zQGTasvD-2" target="9-YvurARduG6vsglTMmP-11">
          <mxGeometry relative="1" as="geometry" />
        </mxCell>
        <mxCell id="9-YvurARduG6vsglTMmP-14" style="edgeStyle=orthogonalEdgeStyle;rounded=0;orthogonalLoop=1;jettySize=auto;html=1;entryX=0;entryY=0.5;entryDx=0;entryDy=0;endArrow=none;endFill=0;" edge="1" parent="1" source="X4NWs6gBd-d9zQGTasvD-2" target="9-YvurARduG6vsglTMmP-10">
          <mxGeometry relative="1" as="geometry" />
        </mxCell>
        <mxCell id="X4NWs6gBd-d9zQGTasvD-2" value="Pet" style="rounded=0;whiteSpace=wrap;html=1;" parent="1" vertex="1">
          <mxGeometry x="260" y="290" width="120" height="60" as="geometry" />
        </mxCell>
        <mxCell id="juon4zRYSN-7gzzzeqw9-18" style="edgeStyle=orthogonalEdgeStyle;rounded=0;orthogonalLoop=1;jettySize=auto;html=1;endArrow=none;endFill=0;" parent="1" source="X4NWs6gBd-d9zQGTasvD-3" edge="1">
          <mxGeometry relative="1" as="geometry">
            <mxPoint x="10" y="320" as="targetPoint" />
          </mxGeometry>
        </mxCell>
        <mxCell id="cDa8z3g_WPGCX3vkx0JX-3" style="edgeStyle=orthogonalEdgeStyle;rounded=0;orthogonalLoop=1;jettySize=auto;html=1;entryX=0.5;entryY=0;entryDx=0;entryDy=0;endArrow=none;endFill=0;" edge="1" parent="1" source="X4NWs6gBd-d9zQGTasvD-3" target="cDa8z3g_WPGCX3vkx0JX-2">
          <mxGeometry relative="1" as="geometry" />
        </mxCell>
        <mxCell id="X4NWs6gBd-d9zQGTasvD-3" value="Veterinario" style="rounded=0;whiteSpace=wrap;html=1;" parent="1" vertex="1">
          <mxGeometry x="70" y="290" width="120" height="60" as="geometry" />
        </mxCell>
        <mxCell id="juon4zRYSN-7gzzzeqw9-7" style="edgeStyle=orthogonalEdgeStyle;rounded=0;orthogonalLoop=1;jettySize=auto;html=1;endArrow=none;endFill=0;" parent="1" source="juon4zRYSN-7gzzzeqw9-5" target="X4NWs6gBd-d9zQGTasvD-3" edge="1">
          <mxGeometry relative="1" as="geometry" />
        </mxCell>
        <mxCell id="juon4zRYSN-7gzzzeqw9-5" value="Possui" style="rhombus;whiteSpace=wrap;html=1;" parent="1" vertex="1">
          <mxGeometry x="90" y="170" width="80" height="80" as="geometry" />
        </mxCell>
        <mxCell id="juon4zRYSN-7gzzzeqw9-17" value="Nome" style="ellipse;whiteSpace=wrap;html=1;" parent="1" vertex="1">
          <mxGeometry x="-100" y="297.5" width="110" height="45" as="geometry" />
        </mxCell>
        <mxCell id="juon4zRYSN-7gzzzeqw9-20" value="Nome" style="ellipse;whiteSpace=wrap;html=1;" parent="1" vertex="1">
          <mxGeometry x="265" y="-30" width="110" height="45" as="geometry" />
        </mxCell>
        <mxCell id="juon4zRYSN-7gzzzeqw9-32" style="edgeStyle=orthogonalEdgeStyle;rounded=0;orthogonalLoop=1;jettySize=auto;html=1;entryX=0;entryY=0.5;entryDx=0;entryDy=0;endArrow=none;endFill=0;" parent="1" source="juon4zRYSN-7gzzzeqw9-24" target="juon4zRYSN-7gzzzeqw9-30" edge="1">
          <mxGeometry relative="1" as="geometry" />
        </mxCell>
        <mxCell id="9-YvurARduG6vsglTMmP-7" style="edgeStyle=orthogonalEdgeStyle;rounded=0;orthogonalLoop=1;jettySize=auto;html=1;entryX=0.5;entryY=1;entryDx=0;entryDy=0;endArrow=none;endFill=0;" edge="1" parent="1" source="juon4zRYSN-7gzzzeqw9-24" target="9-YvurARduG6vsglTMmP-6">
          <mxGeometry relative="1" as="geometry" />
        </mxCell>
        <mxCell id="juon4zRYSN-7gzzzeqw9-24" value="Possui" style="rhombus;whiteSpace=wrap;html=1;" parent="1" vertex="1">
          <mxGeometry x="630" y="280" width="80" height="80" as="geometry" />
        </mxCell>
        <mxCell id="juon4zRYSN-7gzzzeqw9-30" value="Donos" style="rounded=0;whiteSpace=wrap;html=1;" parent="1" vertex="1">
          <mxGeometry x="780" y="290" width="120" height="60" as="geometry" />
        </mxCell>
        <mxCell id="juon4zRYSN-7gzzzeqw9-34" value="Endereço" style="ellipse;whiteSpace=wrap;html=1;" parent="1" vertex="1">
          <mxGeometry x="480" y="67.5" width="110" height="45" as="geometry" />
        </mxCell>
        <mxCell id="9-YvurARduG6vsglTMmP-5" style="edgeStyle=orthogonalEdgeStyle;rounded=0;orthogonalLoop=1;jettySize=auto;html=1;entryX=0.5;entryY=1;entryDx=0;entryDy=0;endArrow=none;endFill=0;" edge="1" parent="1" source="9-YvurARduG6vsglTMmP-4" target="juon4zRYSN-7gzzzeqw9-24">
          <mxGeometry relative="1" as="geometry" />
        </mxCell>
        <mxCell id="9-YvurARduG6vsglTMmP-4" value="Raça" style="rounded=0;whiteSpace=wrap;html=1;" vertex="1" parent="1">
          <mxGeometry x="610" y="430" width="120" height="60" as="geometry" />
        </mxCell>
        <mxCell id="9-YvurARduG6vsglTMmP-6" value="Tipo" style="rounded=0;whiteSpace=wrap;html=1;" vertex="1" parent="1">
          <mxGeometry x="610" y="150" width="120" height="60" as="geometry" />
        </mxCell>
        <mxCell id="9-YvurARduG6vsglTMmP-10" value="Nome" style="ellipse;whiteSpace=wrap;html=1;" vertex="1" parent="1">
          <mxGeometry x="420" y="397.5" width="110" height="45" as="geometry" />
        </mxCell>
        <mxCell id="9-YvurARduG6vsglTMmP-11" value="Data de nascimento" style="ellipse;whiteSpace=wrap;html=1;" vertex="1" parent="1">
          <mxGeometry x="420" y="470" width="110" height="45" as="geometry" />
        </mxCell>
        <mxCell id="9-YvurARduG6vsglTMmP-15" value="1" style="text;html=1;strokeColor=none;fillColor=none;align=center;verticalAlign=middle;whiteSpace=wrap;rounded=0;" vertex="1" parent="1">
          <mxGeometry x="220" y="82.5" width="60" height="30" as="geometry" />
        </mxCell>
        <mxCell id="9-YvurARduG6vsglTMmP-16" value="n" style="text;html=1;strokeColor=none;fillColor=none;align=center;verticalAlign=middle;whiteSpace=wrap;rounded=0;" vertex="1" parent="1">
          <mxGeometry x="110" y="260" width="60" height="30" as="geometry" />
        </mxCell>
        <mxCell id="9-YvurARduG6vsglTMmP-20" value="1" style="text;html=1;strokeColor=none;fillColor=none;align=center;verticalAlign=middle;whiteSpace=wrap;rounded=0;" vertex="1" parent="1">
          <mxGeometry x="110" y="342.5" width="60" height="30" as="geometry" />
        </mxCell>
        <mxCell id="9-YvurARduG6vsglTMmP-22" value="1" style="text;html=1;strokeColor=none;fillColor=none;align=center;verticalAlign=middle;whiteSpace=wrap;rounded=0;" vertex="1" parent="1">
          <mxGeometry x="580" y="297.5" width="60" height="30" as="geometry" />
        </mxCell>
        <mxCell id="9-YvurARduG6vsglTMmP-23" value="n" style="text;html=1;strokeColor=none;fillColor=none;align=center;verticalAlign=middle;whiteSpace=wrap;rounded=0;" vertex="1" parent="1">
          <mxGeometry x="650" y="210" width="60" height="30" as="geometry" />
        </mxCell>
        <mxCell id="9-YvurARduG6vsglTMmP-24" value="1" style="text;html=1;strokeColor=none;fillColor=none;align=center;verticalAlign=middle;whiteSpace=wrap;rounded=0;" vertex="1" parent="1">
          <mxGeometry x="740" y="320" width="60" height="30" as="geometry" />
        </mxCell>
        <mxCell id="9-YvurARduG6vsglTMmP-25" value="n" style="text;html=1;strokeColor=none;fillColor=none;align=center;verticalAlign=middle;whiteSpace=wrap;rounded=0;" vertex="1" parent="1">
          <mxGeometry x="650" y="405" width="60" height="30" as="geometry" />
        </mxCell>
        <mxCell id="cDa8z3g_WPGCX3vkx0JX-4" style="edgeStyle=orthogonalEdgeStyle;rounded=0;orthogonalLoop=1;jettySize=auto;html=1;endArrow=none;endFill=0;" edge="1" parent="1" source="cDa8z3g_WPGCX3vkx0JX-1" target="cDa8z3g_WPGCX3vkx0JX-2">
          <mxGeometry relative="1" as="geometry" />
        </mxCell>
        <mxCell id="cDa8z3g_WPGCX3vkx0JX-7" style="edgeStyle=orthogonalEdgeStyle;rounded=0;orthogonalLoop=1;jettySize=auto;html=1;entryX=0;entryY=0.5;entryDx=0;entryDy=0;endArrow=none;endFill=0;" edge="1" parent="1" source="cDa8z3g_WPGCX3vkx0JX-1" target="cDa8z3g_WPGCX3vkx0JX-6">
          <mxGeometry relative="1" as="geometry" />
        </mxCell>
        <mxCell id="cDa8z3g_WPGCX3vkx0JX-1" value="Atendimento" style="rounded=0;whiteSpace=wrap;html=1;" vertex="1" parent="1">
          <mxGeometry x="70" y="500" width="120" height="60" as="geometry" />
        </mxCell>
        <mxCell id="cDa8z3g_WPGCX3vkx0JX-2" value="Possui" style="rhombus;whiteSpace=wrap;html=1;" vertex="1" parent="1">
          <mxGeometry x="90" y="390" width="80" height="80" as="geometry" />
        </mxCell>
        <mxCell id="cDa8z3g_WPGCX3vkx0JX-8" style="edgeStyle=orthogonalEdgeStyle;rounded=0;orthogonalLoop=1;jettySize=auto;html=1;endArrow=none;endFill=0;" edge="1" parent="1" source="cDa8z3g_WPGCX3vkx0JX-6" target="X4NWs6gBd-d9zQGTasvD-2">
          <mxGeometry relative="1" as="geometry" />
        </mxCell>
        <mxCell id="cDa8z3g_WPGCX3vkx0JX-6" value="Possui" style="rhombus;whiteSpace=wrap;html=1;" vertex="1" parent="1">
          <mxGeometry x="280" y="490" width="80" height="80" as="geometry" />
        </mxCell>
        <mxCell id="dVCDaZxZnBJC6ogfSqKL-1" value="n" style="text;html=1;strokeColor=none;fillColor=none;align=center;verticalAlign=middle;whiteSpace=wrap;rounded=0;" vertex="1" parent="1">
          <mxGeometry x="120" y="477.5" width="60" height="30" as="geometry" />
        </mxCell>
        <mxCell id="dVCDaZxZnBJC6ogfSqKL-2" value="n" style="text;html=1;strokeColor=none;fillColor=none;align=center;verticalAlign=middle;whiteSpace=wrap;rounded=0;" vertex="1" parent="1">
          <mxGeometry x="170" y="530" width="60" height="30" as="geometry" />
        </mxCell>
        <mxCell id="dVCDaZxZnBJC6ogfSqKL-3" value="1" style="text;html=1;strokeColor=none;fillColor=none;align=center;verticalAlign=middle;whiteSpace=wrap;rounded=0;" vertex="1" parent="1">
          <mxGeometry x="300" y="350" width="60" height="30" as="geometry" />
        </mxCell>
      </root>
    </mxGraphModel>
  </diagram>
  <diagram id="GhSeXMtOqiHQF7_Uwag3" name="Página-5">
    <mxGraphModel dx="1050" dy="581" grid="1" gridSize="10" guides="1" tooltips="1" connect="1" arrows="1" fold="1" page="1" pageScale="1" pageWidth="827" pageHeight="1169" math="0" shadow="0">
      <root>
        <mxCell id="0" />
        <mxCell id="1" parent="0" />
        <mxCell id="A6KC3MsDRd4jZHGqdRiW-1" value="Usuario" style="rounded=0;whiteSpace=wrap;html=1;" parent="1" vertex="1">
          <mxGeometry x="110" y="270" width="120" height="60" as="geometry" />
        </mxCell>
        <mxCell id="A6KC3MsDRd4jZHGqdRiW-2" value="Albuns" style="rounded=0;whiteSpace=wrap;html=1;" parent="1" vertex="1">
          <mxGeometry x="470" y="110" width="120" height="60" as="geometry" />
        </mxCell>
        <mxCell id="A6KC3MsDRd4jZHGqdRiW-3" value="Cds" style="rounded=0;whiteSpace=wrap;html=1;" parent="1" vertex="1">
          <mxGeometry x="520" y="250" width="120" height="60" as="geometry" />
        </mxCell>
      </root>
    </mxGraphModel>
  </diagram>
</mxfile>
